<svg width="19" height="15" fill="none" xmlns="http://www.w3.org/2000/svg"><path opacity=".3" d="M18.398 2.414a7.671 7.671 0 01-2.124.557A3.581 3.581 0 0017.9 1.015a7.617 7.617 0 01-2.348.858 3.771 3.771 0 00-2.7-1.116c-2.04 0-3.697 1.582-3.697 3.534 0 .277.032.547.096.805-3.074-.147-5.798-1.554-7.622-3.692a3.395 3.395 0 00-.5 1.777c0 1.225.652 2.307 1.644 2.94a3.805 3.805 0 01-1.675-.441v.045c0 1.712 1.275 3.14 2.966 3.465a3.886 3.886 0 01-1.67.06c.47 1.405 1.837 2.426 3.455 2.456a7.65 7.65 0 01-4.593 1.512 8.04 8.04 0 01-.882-.05 10.826 10.826 0 005.669 1.59c6.802 0 10.52-5.387 10.52-10.057 0-.153 0-.306-.01-.458a7.37 7.37 0 001.845-1.829h.001z" fill="#fff"/></svg>